<svg xmlns="http://www.w3.org/2000/svg">
  <symbol viewBox="0 0 17 21">
    <path id="business"
          d="M16.4 15.1c-.9-1.2-2-2-3.6-2.4l-1.5 5.2c0 .5-.4.9-.9.9s-.9-.4-.9-.9v-4.2c0-.6-.5-1.1-1.1-1.1-.6 0-1.1.5-1.1 1.1v4.2c0 .5-.4.9-.9.9s-.9-.4-.9-.9L4 12.7c-1.6.4-2.7 1.2-3.6 2.4-.2.5-.4 1.5-.4 2v2.2c0 1 .8 1.7 1.7 1.7h13.5c1 0 1.7-.8 1.7-1.7v-1.8-.4c.1-.5-.1-1.5-.5-2zM3.9 4.6c0 2.6 1.6 6.3 4.6 6.3 2.9 0 4.6-3.8 4.6-6.3 0-2.6-2-4.6-4.6-4.6C6 0 3.9 2.1 3.9 4.6z"
          fill="#132576"/>
  </symbol>
  <symbol viewBox="0 0 30 15.8" id="vk">
    <g>
      <path d="M23.9,15.8c-0.4,0-1.2-0.1-2.1-0.6c-0.6-0.4-1.2-1-1.8-1.5c-0.4-0.4-1.2-1.2-1.4-1.2c-0.3,0.1-0.5,0.9-0.5,1.6
    c0,0.1,0,0.8-0.5,1.2c-0.4,0.4-1.1,0.5-1.2,0.5l-1.9,0c-1,0-4.4-0.2-7.4-3c-3.7-3.4-6.8-9.8-7-10.1C0,2.2-0.1,1.5,0.3,1.1
    c0.4-0.4,1.1-0.5,1.4-0.5l4.1,0l0.1,0c0.1,0,0.6,0.1,1,0.3c0.4,0.2,0.6,0.7,0.6,0.7c0,0,0.6,1.4,1.5,2.7c1.3,2,1.9,2.5,2.1,2.6
    c0.2-0.4,0.3-1.7,0.2-2.9c0-0.5-0.1-1.1-0.3-1.3c-0.1-0.1-0.4-0.3-0.8-0.3L9.5,1.8c-0.1-0.7,0.6-1.2,1.1-1.4
    C11.3,0.1,12.4,0,13.7,0l0.7,0c1.2,0,1.6,0.1,2.1,0.2c1.7,0.4,1.6,1.7,1.6,3.3c0,0.5,0,1,0,1.6c0,0.2,0,0.3,0,0.5
    c0,0.4,0,1,0.1,1.3c0.2-0.1,0.9-0.7,2.1-2.5c0.8-1.2,1.4-2.5,1.5-2.8l0,0c0.2-0.4,0.6-0.9,1.6-0.9l4.3,0c0,0,0.2,0,0.4,0
    c1,0,1.6,0.3,1.8,0.9c0.3,0.6,0.2,1.7-2.4,4.6c-0.4,0.4-0.7,0.8-1,1.1c-0.6,0.7-1.2,1.4-1.2,1.6C25.4,9,26,9.5,26.6,10
    c1.5,1.2,2.5,2.3,3,3.1c0.5,0.8,0.4,1.3,0.3,1.7c-0.4,0.9-1.6,1-1.9,1l-3.8,0C24.1,15.8,24.1,15.8,23.9,15.8z M18.6,10.9
    c0.9,0,1.7,0.8,2.5,1.6c0.5,0.5,1,1,1.5,1.3c0.7,0.4,1.3,0.4,1.4,0.4l0.1,0l3.8,0c0.2,0,0.4-0.1,0.5-0.1c0,0,0-0.1-0.1-0.2
    c-0.4-0.7-1.4-1.7-2.7-2.7c-1.2-1-1.8-1.5-1.9-2.2c-0.1-0.8,0.5-1.4,1.6-2.7c0.3-0.3,0.6-0.7,1-1.1c1.6-1.8,2-2.6,2.1-3
    c-0.2,0-0.6,0-0.7,0l-4.4,0c-0.2,0-0.2,0-0.2,0c-0.2,0.4-0.8,1.8-1.6,3c-1.9,2.8-2.8,3.2-3.4,3.2c-0.2,0-0.4,0-0.6-0.1
    c-1-0.6-1-1.8-0.9-2.8c0-0.1,0-0.3,0-0.4c0-0.6,0-1.2,0-1.7c0.1-1.7,0-1.7-0.4-1.8c-0.4-0.1-0.7-0.1-1.9-0.2l-0.7,0
    c-0.6,0-1.3,0-1.9,0.1c0.1,0.1,0.2,0.2,0.3,0.3c0.6,0.7,0.6,2,0.6,2.2c0.1,1.6,0.1,3.8-1,4.3c-0.2,0.1-0.4,0.1-0.6,0.1
    c-0.9,0-1.9-0.9-3.4-3.3C6.8,3.9,6.1,2.4,6.1,2.3c0,0-0.1-0.1-0.1-0.1C5.9,2.2,5.8,2.1,5.7,2.1l-4,0c0,0,0,0-0.1,0
    C2.2,3.3,5,8.7,8.1,11.6c2.7,2.5,5.8,2.6,6.4,2.6l1.9,0c0,0,0.2-0.1,0.3-0.1c0,0,0-0.1,0-0.1c0-0.3,0-2.6,1.6-3
    C18.4,10.9,18.5,10.9,18.6,10.9z"/>
    </g>
  </symbol>
  <symbol viewBox="0 0 11 21" id="fb">
    <g>
      <path d="M7.8,21H2.2v-9.8H0V6.4h2.1C2,4.2,2.4,2.6,3.4,1.5C4.2,0.6,5.5,0.1,7.1,0L11,0v4.7H7.9C7.8,4.9,7.7,5.5,7.7,6.4H11v4.8H7.8
V21z M3.4,19.9h3.1v-9.8h3.2V7.5H6.5l0-0.6c0-1.5,0-2.9,0.8-3.4l0.2-0.1h2.3V1.1H7.1C5.9,1.2,4.9,1.6,4.3,2.3
C3.5,3.2,3.2,4.8,3.4,6.9l0.1,0.6H1.2v2.6h2.2V19.9z"/>
    </g>
  </symbol>
  <symbol viewBox="0 0 23 23" id="instagram">
    <path
      d="M17 1.5c2.5 0 4.5 2 4.5 4.5v11c0 2.5-2 4.5-4.5 4.5H6c-2.5 0-4.5-2-4.5-4.5V6c0-2.5 2-4.5 4.5-4.5h11M17 0H6C2.7 0 0 2.7 0 6v11c0 3.3 2.7 6 6 6h11c3.3 0 6-2.7 6-6V6c0-3.3-2.7-6-6-6z"/>
    <path class="st0"
          d="M11.5 7.1c2.4 0 4.4 2 4.4 4.4 0 2.4-2 4.4-4.4 4.4-2.4 0-4.4-2-4.4-4.4 0-2.4 2-4.4 4.4-4.4m0-1.5c-3.3 0-5.9 2.7-5.9 5.9s2.7 5.9 5.9 5.9 5.9-2.7 5.9-5.9-2.6-5.9-5.9-5.9z"/>
    <circle class="st0" cx="17.6" cy="5.4" r="1.3"/>
  </symbol>
  <symbol viewBox="0 0 23 23" id="user">
    <g fill="#192144">
      <ellipse cx="10" cy="6" rx="5" ry="6"/>
      <path d="M19.8,17.1c-0.9-1.8-2.6-3.3-4.8-4.2c-0.6-0.2-1.3-0.2-1.8,0.1c-1,0.6-2,0.9-3.2,0.9S7.8,13.6,6.8,13
      c-0.5-0.2-1.2-0.3-1.8,0c-2.2,0.9-3.9,2.4-4.8,4.2C-0.5,18.5,0.6,20,2.1,20h15.8C19.4,20,20.5,18.5,19.8,17.1z"/>
    </g>
  </symbol>
  <symbol id="htmlacademy" viewBox="0 0 27 34">
    <path
      d="M13.6 0h-.2L0 1.4V26l13.5 8L27 26V1.4L13.6 0zm5.7 16.8l-.9.5-5-3v1.4l3.8 2.3-.8.5-3-1.8v1.4l1.9 1.1-1.8 1.1L2 13.6l11.4-6.8L25 13.5l-4.5 2.6-7.1-4.2v1.4l5.9 3.5zM1.9 15.1l11.4 6.8v1l-8-4.7v1.4l8 4.8v1.1l-8-4.7v1.4l8 4.8 8.2-4.9V17l3.4-2v10l-11.6 6.9-11.4-7v-9.8zm0-3v-9l11.6-1.2 11.6 1.2v9L13.5 5.3v-.1h-.2v.1L1.9 12.1z"
      fill="#231f20"/>
  </symbol>
  <symbol id="topmenu-mail" viewBox="0 0 18 14">
    <path class="st0" d="M14.9 1.8c1.2-1 .9-1.8-.7-1.8H3.7c-1.5 0-1.8.8-.6 1.8l3.7 3.1c1.2 1 3.2 1 4.4 0l3.7-3.1z"/>
    <path class="st0"
          d="M11.9 7.1c-1.2 1-2.2 1.8-2.2 1.8-.1.1-.2.1-.3.1h-.1c-.1.1-.2.1-.3.1-.1 0-.2 0-.3-.1h-.1c-.1 0-.2 0-.3-.1 0 0-1-.8-2.2-1.8L2.2 3.8C1 2.8 0 3.3 0 4.8v6.3C0 12.7 1.3 14 2.8 14h12.3c1.6 0 2.8-1.3 2.8-2.8V4.8c0-1.6-1-2-2.2-1l-3.8 3.3z"/>
  </symbol>
  <symbol id="topmenu-phone">
    <path class="st0"
          d="M12.6 18h-.8c-3.6-.4-6.2-2.1-8.1-4.3C1.8 11.6.3 8.8 0 5V4c.1-.7.4-1.1.8-1.5C1.2 2 2 1.4 2.6 1.3c.5 0 1.3.3 1.6.8.3.4.4 1.2.6 1.8.1.6.4 1.4.4 2-.2.9-1.3 1.3-1.7 1.9 1.1 2.8 3 4.8 5.4 6.2.6-.3 1.2-1.4 2-1.4.3 0 .7.2 1 .3.3.1.6.2 1 .4.5.2 1.4.5 1.7.9.3.4.5 1.2.4 1.7-.1.8-1.6 1.8-2.4 2.1z"
          id="UrwUhy_1_"/>
    <path class="st0"
          d="M9.1 1.1c4.3 0 7.8 3.6 7.8 8H18c0-5-4-9.1-8.9-9.1v1.1zM9.1 6.9V8c.6 0 1 .5 1 1.1h1.1c0-1.2-.9-2.2-2.1-2.2z"/>
    <path class="st0" d="M9.1 4.6c2.4 0 4.4 2 4.4 4.5h1.2c0-3.1-2.5-5.7-5.5-5.7v1.2h-.1z"/>
  </symbol>
</svg>
